<svg xmlns="http://www.w3.org/2000/svg" width="136.597" height="104.4" viewBox="0 0 136.597 104.4"><defs><style>.a{fill:#62ab85;}</style></defs><g transform="translate(32.258 64.713)"><path d="M90.85,185.635h1.136l1.34,4.519c.306,1,.5,1.787.817,2.77h.051c.306-.983.51-1.774.8-2.77l1.34-4.519h1.085l-2.655,8.374H93.53Z" transform="translate(-90.85 -184.435)"/><path d="M109.978,194.583a2.992,2.992,0,0,1,2.783-3.268c1.583,0,2.476,1.136,2.476,2.91a4.1,4.1,0,0,1-.038.6h-4.187a2.057,2.057,0,0,0,2.068,2.157,2.8,2.8,0,0,0,1.544-.485l.37.69a3.7,3.7,0,0,1-2.042.638A2.966,2.966,0,0,1,109.978,194.583Zm4.34-.511c0-1.251-.562-1.928-1.532-1.928A1.916,1.916,0,0,0,111,194.072Z" transform="translate(-103.186 -188.098)"/><path d="M128.6,191.468h.868l.089,1.123h.038a2.122,2.122,0,0,1,1.761-1.276,1.544,1.544,0,0,1,.664.127l-.2.919a1.734,1.734,0,0,0-.6-.1c-.523,0-1.149.383-1.57,1.429v3.983H128.6Z" transform="translate(-115.198 -188.098)"/><path d="M140.575,191.459v-7.837h1.046v7.914c0,.332.141.46.294.46a.879.879,0,0,0,.23-.026l.14.791a1.407,1.407,0,0,1-.6.1C140.894,192.863,140.575,192.366,140.575,191.459Z" transform="translate(-122.919 -183.137)"/><path d="M148.161,196.063c0-1.353,1.162-2.03,3.8-2.323,0-.791-.255-1.557-1.276-1.557a3.375,3.375,0,0,0-1.851.664l-.408-.728a4.6,4.6,0,0,1,2.438-.8c1.519,0,2.157,1.008,2.157,2.553v3.8h-.868l-.089-.74h-.038a3.31,3.31,0,0,1-2.055.893A1.688,1.688,0,0,1,148.161,196.063Zm3.8.089v-1.724c-2.068.256-2.783.766-2.783,1.558,0,.7.485,1,1.1,1A2.514,2.514,0,0,0,151.965,196.153Z" transform="translate(-127.812 -188.098)"/><path d="M165.528,198.859a1.792,1.792,0,0,1,.906-1.4V197.4a1.146,1.146,0,0,1-.549-1.008,1.454,1.454,0,0,1,.676-1.149V195.2a2.19,2.19,0,0,1,1.532-3.881,2.48,2.48,0,0,1,.881.153h2.157v.8h-1.276a1.8,1.8,0,0,1,.511,1.276,2.129,2.129,0,0,1-2.272,2.157,2.163,2.163,0,0,1-.932-.217.94.94,0,0,0-.4.74c0,.4.255.677,1.1.677h1.2c1.442,0,2.17.447,2.17,1.481,0,1.149-1.213,2.144-3.14,2.144C166.575,200.531,165.528,199.931,165.528,198.859Zm4.685-.319c0-.574-.447-.766-1.251-.766H167.89a3.015,3.015,0,0,1-.8-.1,1.306,1.306,0,0,0-.638,1.047c0,.664.676,1.085,1.8,1.085C169.434,199.8,170.213,199.191,170.213,198.54Zm-.8-5.016a1.32,1.32,0,1,0-2.63,0,1.324,1.324,0,1,0,2.63,0Z" transform="translate(-139.012 -188.098)"/><path d="M191.524,182.255h.74V195.02h-.74Z" transform="translate(-155.778 -182.255)"/><path d="M206.008,185.635h1.2l2.834,8.374h-1.137l-.791-2.553h-3.051l-.8,2.553h-1.085Zm-.676,4.965h2.515l-.4-1.276c-.307-.932-.574-1.851-.843-2.821h-.051c-.256.97-.523,1.889-.83,2.821Z" transform="translate(-163.291 -184.435)"/><path d="M224.6,195.678v-3.932h1.059v3.791c0,1.162.345,1.66,1.161,1.66.638,0,1.085-.319,1.672-1.047v-4.4h1.047v6.2h-.868l-.089-.97h-.038A2.622,2.622,0,0,1,226.5,198.1C225.19,198.1,224.6,197.26,224.6,195.678Z" transform="translate(-177.112 -188.376)"/><path d="M241.97,196.97l.523-.7a2.791,2.791,0,0,0,1.825.741c.817,0,1.225-.434,1.225-.97,0-.638-.74-.919-1.417-1.174-.881-.319-1.851-.74-1.851-1.787,0-1,.792-1.761,2.132-1.761a3.1,3.1,0,0,1,1.928.7l-.5.664a2.3,2.3,0,0,0-1.417-.549c-.779,0-1.136.421-1.136.893,0,.587.676.8,1.379,1.072.893.332,1.889.7,1.889,1.877,0,1.008-.8,1.851-2.272,1.851A3.735,3.735,0,0,1,241.97,196.97Z" transform="translate(-188.312 -188.098)"/><path d="M258.473,191.459v-7.837h1.046v7.914c0,.332.14.46.294.46a.882.882,0,0,0,.23-.026l.14.791a1.407,1.407,0,0,1-.6.1C258.792,192.863,258.473,192.366,258.473,191.459Z" transform="translate(-198.956 -183.137)"/><path d="M266.6,185.017a.729.729,0,0,1,1.455,0,.729.729,0,0,1-1.455,0Zm.192,1.953h1.046v6.2H266.79Z" transform="translate(-204.196 -183.6)"/><path d="M274.185,194.583a2.992,2.992,0,0,1,2.783-3.268c1.583,0,2.476,1.136,2.476,2.91a4.1,4.1,0,0,1-.038.6h-4.187a2.057,2.057,0,0,0,2.068,2.157,2.8,2.8,0,0,0,1.545-.485l.37.69a3.7,3.7,0,0,1-2.042.638A2.966,2.966,0,0,1,274.185,194.583Zm4.34-.511c0-1.251-.562-1.928-1.532-1.928a1.916,1.916,0,0,0-1.787,1.928Z" transform="translate(-209.089 -188.098)"/><path d="M291.782,187.083h-.843v-.791l.843-.064v-.983c0-1.264.575-2.055,1.813-2.055a2.807,2.807,0,0,1,1.034.2l-.229.8a1.748,1.748,0,0,0-.7-.153c-.587,0-.868.408-.868,1.2v.983h1.314v.855h-1.314v5.348h-1.047Z" transform="translate(-219.894 -182.858)"/><path d="M301.15,194.583a2.992,2.992,0,0,1,2.783-3.268c1.583,0,2.477,1.136,2.477,2.91a4.055,4.055,0,0,1-.038.6h-4.187a2.058,2.058,0,0,0,2.068,2.157,2.8,2.8,0,0,0,1.544-.485l.37.69a3.7,3.7,0,0,1-2.042.638A2.967,2.967,0,0,1,301.15,194.583Zm4.34-.511c0-1.251-.562-1.928-1.532-1.928a1.917,1.917,0,0,0-1.787,1.928Z" transform="translate(-226.479 -188.098)"/><path d="M319.776,191.468h.868l.09,1.123h.038a2.122,2.122,0,0,1,1.762-1.276,1.544,1.544,0,0,1,.664.127l-.2.919a1.734,1.734,0,0,0-.6-.1c-.523,0-1.149.383-1.57,1.429v3.983h-1.047Z" transform="translate(-238.492 -188.098)"/><path d="M331.5,195.678v-3.932h1.059v3.791c0,1.162.345,1.66,1.162,1.66.638,0,1.085-.319,1.672-1.047v-4.4h1.046v6.2h-.868l-.09-.97h-.038A2.622,2.622,0,0,1,333.4,198.1C332.084,198.1,331.5,197.26,331.5,195.678Z" transform="translate(-246.051 -188.376)"/><path d="M350.8,191.468h.868l.09.894h.038a2.925,2.925,0,0,1,2.081-1.047c1.3,0,1.889.842,1.889,2.425v3.932h-1.047v-3.791c0-1.161-.358-1.66-1.175-1.66-.638,0-1.072.332-1.7.957v4.493H350.8Z" transform="translate(-258.504 -188.098)"/><path d="M368.64,198.859a1.791,1.791,0,0,1,.906-1.4V197.4A1.145,1.145,0,0,1,369,196.4a1.454,1.454,0,0,1,.676-1.149V195.2a2.19,2.19,0,0,1,1.532-3.881,2.484,2.484,0,0,1,.881.153h2.157v.8h-1.276a1.8,1.8,0,0,1,.511,1.276,2.129,2.129,0,0,1-2.272,2.157,2.163,2.163,0,0,1-.932-.217.94.94,0,0,0-.4.74c0,.4.256.677,1.1.677h1.2c1.442,0,2.17.447,2.17,1.481,0,1.149-1.213,2.144-3.14,2.144C369.686,200.531,368.64,199.931,368.64,198.859Zm4.684-.319c0-.574-.447-.766-1.251-.766H371a3.015,3.015,0,0,1-.8-.1,1.307,1.307,0,0,0-.638,1.047c0,.664.676,1.085,1.8,1.085C372.546,199.8,373.324,199.191,373.324,198.54Zm-.8-5.016a1.32,1.32,0,1,0-2.63,0,1.324,1.324,0,1,0,2.63,0Z" transform="translate(-270.006 -188.098)"/></g><path class="a" d="M82.7,83.449a43.678,43.678,0,1,1,0-62.5l.195.193h0v0l0,0,5.232-.795.795-5.232,0,0h0a52.2,52.2,0,1,0,5.088,68.336Z"/><path d="M67.327,88.112H73.99l3.357,12.976c.829,3.046,1.387,5.856,2.231,8.93h.171c.844-3.074,1.437-5.883,2.231-8.93l3.286-12.976H91.7l-8.4,27.847H75.741Z" transform="translate(-43.421 -56.826)"/><path d="M140.893,88.112h7.533l8.746,27.847h-6.663l-3.643-14.1c-.774-2.784-1.518-6.077-2.262-8.982h-.171c-.673,2.94-1.417,6.2-2.191,8.982l-3.658,14.1h-6.436Zm-2.979,16.321h13.4v4.893h-13.4Z" transform="translate(-85.227 -56.826)"/><path d="M206.064,111.514l3.616-4.32a11.088,11.088,0,0,0,6.84,2.91c2.628,0,3.914-1.035,3.914-2.688,0-1.753-1.583-2.316-4.015-3.316l-3.619-1.543c-2.885-1.174-5.619-3.544-5.619-7.591,0-4.614,4.122-8.3,9.918-8.3a12.874,12.874,0,0,1,8.958,3.649l-3.178,3.968A9.064,9.064,0,0,0,217.1,92.1c-2.171,0-3.552.9-3.552,2.5,0,1.708,1.822,2.328,4.252,3.3l3.548,1.437c3.4,1.374,5.524,3.639,5.524,7.575,0,4.625-3.855,8.631-10.491,8.631A15.337,15.337,0,0,1,206.064,111.514Z" transform="translate(-132.897 -55.895)"/><path d="M276.165,149.67a3.794,3.794,0,1,1,3.791,3.947A3.8,3.8,0,0,1,276.165,149.67Z" transform="translate(-178.108 -93.972)"/><path d="M307.6,113.952l2.826-3.968a8.744,8.744,0,0,0,5.86,2.714c2.774,0,4.558-1.472,4.558-4.255a3.918,3.918,0,0,0-4.261-4.2,6.377,6.377,0,0,0-4.015,1.387l-2.8-1.81.744-13.7H325.9V95.4h-9.967l-.447,5.089a7.139,7.139,0,0,1,3.015-.623c4.684,0,8.641,2.649,8.641,8.419,0,6.022-4.66,9.48-9.953,9.48A12.958,12.958,0,0,1,307.6,113.952Z" transform="translate(-198.384 -58.123)"/></svg>
