<svg xmlns="http://www.w3.org/2000/svg" width="78.696" height="60" viewBox="0 0 78.696 60"><defs><style>.a{fill:#fff;}</style></defs><path class="a" d="M47.646,47.959a25.1,25.1,0,1,1,0-35.918l.112.111h0l3.014-.457.458-3.007h0a29.994,29.994,0,1,0,2.931,39.273Z"/><g transform="translate(13.772 17.669)"><path class="a" d="M67.327,88.112h3.839L73.1,95.588c.478,1.755.8,3.374,1.285,5.144h.1c.486-1.771.828-3.39,1.285-5.144l1.893-7.476H81.37l-4.839,16.043H72.174Z" transform="translate(-67.327 -87.817)"/><path class="a" d="M137.186,88.112h4.34l5.038,16.043h-3.839l-2.1-8.125c-.446-1.6-.874-3.5-1.3-5.175h-.1c-.388,1.694-.816,3.571-1.262,5.175l-2.108,8.125h-3.708Zm-1.716,9.4h7.719v2.819H135.47Z" transform="translate(-118.888 -87.817)"/><path class="a" d="M206.064,100.982l2.083-2.489a6.388,6.388,0,0,0,3.941,1.676c1.514,0,2.255-.6,2.255-1.548,0-1.01-.912-1.334-2.313-1.91l-2.085-.889a4.68,4.68,0,0,1-3.237-4.373c0-2.658,2.375-4.781,5.714-4.781a7.417,7.417,0,0,1,5.161,2.1l-1.831,2.286a5.222,5.222,0,0,0-3.33-1.257c-1.251,0-2.047.521-2.047,1.438,0,.984,1.05,1.341,2.45,1.9l2.044.828a4.425,4.425,0,0,1,3.183,4.364c0,2.664-2.221,4.972-6.044,4.972A8.836,8.836,0,0,1,206.064,100.982Z" transform="translate(-177.684 -86.668)"/><path class="a" d="M276.165,147.99a2.186,2.186,0,1,1,2.184,2.274A2.188,2.188,0,0,1,276.165,147.99Z" transform="translate(-233.445 -133.631)"/><path class="a" d="M307.6,103.851l1.628-2.286a5.038,5.038,0,0,0,3.376,1.564,2.325,2.325,0,0,0,2.626-2.452,2.257,2.257,0,0,0-2.455-2.417,3.674,3.674,0,0,0-2.313.8l-1.614-1.043.429-7.894h8.865v3.042H312.4l-.258,2.932a4.113,4.113,0,0,1,1.737-.359c2.7,0,4.978,1.526,4.978,4.85,0,3.469-2.684,5.462-5.734,5.462A7.465,7.465,0,0,1,307.6,103.851Z" transform="translate(-258.453 -89.415)"/></g><g transform="translate(18.584 37.179)"><path class="a" d="M90.85,185.635H91.5l.772,2.6c.177.574.287,1.03.471,1.6h.029c.176-.566.294-1.022.463-1.6l.772-2.6h.625l-1.529,4.824h-.713Z" transform="translate(-90.85 -184.944)"/><path class="a" d="M109.978,193.2a1.724,1.724,0,0,1,1.6-1.883c.912,0,1.427.654,1.427,1.677a2.365,2.365,0,0,1-.022.346h-2.412a1.185,1.185,0,0,0,1.191,1.243,1.614,1.614,0,0,0,.89-.279l.213.4a2.129,2.129,0,0,1-1.177.368A1.709,1.709,0,0,1,109.978,193.2Zm2.5-.294c0-.721-.324-1.111-.882-1.111a1.1,1.1,0,0,0-1.03,1.111Z" transform="translate(-106.065 -189.462)"/><path class="a" d="M128.6,191.4h.5l.052.647h.022a1.223,1.223,0,0,1,1.015-.735.889.889,0,0,1,.382.073l-.118.53a1,1,0,0,0-.345-.059c-.3,0-.662.221-.9.824v2.295h-.6Z" transform="translate(-120.88 -189.462)"/><path class="a" d="M140.575,188.137v-4.515h.6v4.559c0,.191.081.265.169.265a.507.507,0,0,0,.132-.015l.081.456a.811.811,0,0,1-.346.059C140.759,188.946,140.575,188.659,140.575,188.137Z" transform="translate(-130.403 -183.342)"/><path class="a" d="M148.161,194.051c0-.78.669-1.169,2.191-1.338,0-.456-.147-.9-.735-.9a1.944,1.944,0,0,0-1.066.383l-.235-.419a2.652,2.652,0,0,1,1.4-.463c.875,0,1.243.581,1.243,1.471v2.191h-.5l-.052-.426h-.022a1.907,1.907,0,0,1-1.184.515A.973.973,0,0,1,148.161,194.051Zm2.191.052v-.993c-1.191.147-1.6.441-1.6.9,0,.4.279.573.632.573A1.448,1.448,0,0,0,150.352,194.1Z" transform="translate(-136.438 -189.462)"/><path class="a" d="M165.528,195.661a1.032,1.032,0,0,1,.522-.809v-.029a.66.66,0,0,1-.316-.581.838.838,0,0,1,.39-.662v-.029a1.262,1.262,0,0,1,.883-2.236,1.429,1.429,0,0,1,.507.088h1.243v.463h-.735a1.036,1.036,0,0,1,.294.735,1.227,1.227,0,0,1-1.309,1.243,1.246,1.246,0,0,1-.537-.125.542.542,0,0,0-.228.427c0,.228.147.39.632.39h.691c.831,0,1.25.257,1.25.853,0,.662-.7,1.235-1.809,1.235C166.131,196.624,165.528,196.279,165.528,195.661Zm2.7-.184c0-.331-.258-.441-.721-.441h-.618a1.737,1.737,0,0,1-.463-.059.753.753,0,0,0-.368.6c0,.382.39.625,1.037.625C167.778,196.205,168.227,195.852,168.227,195.477Zm-.463-2.89a.761.761,0,1,0-1.515,0,.763.763,0,1,0,1.515,0Z" transform="translate(-150.252 -189.462)"/><path class="a" d="M191.524,182.255h.426v7.354h-.426Z" transform="translate(-170.93 -182.255)"/><path class="a" d="M204.807,185.635h.691l1.633,4.824h-.655l-.456-1.471h-1.758l-.464,1.471h-.625Zm-.39,2.861h1.449l-.228-.735c-.177-.537-.331-1.066-.485-1.625h-.029c-.147.559-.3,1.088-.478,1.625Z" transform="translate(-180.197 -184.944)"/><path class="a" d="M224.6,194.011v-2.265h.61v2.184c0,.669.2.956.669.956.368,0,.625-.184.963-.6v-2.537h.6v3.574h-.5l-.052-.559h-.022a1.511,1.511,0,0,1-1.177.647C224.941,195.408,224.6,194.923,224.6,194.011Z" transform="translate(-197.243 -189.805)"/><path class="a" d="M241.97,194.573l.3-.4a1.608,1.608,0,0,0,1.052.427c.471,0,.706-.25.706-.559,0-.368-.426-.529-.816-.676-.508-.184-1.066-.427-1.066-1.03,0-.574.456-1.015,1.228-1.015a1.784,1.784,0,0,1,1.111.4l-.287.383a1.326,1.326,0,0,0-.816-.316c-.449,0-.655.243-.655.515,0,.338.39.463.794.618.515.191,1.088.4,1.088,1.081,0,.581-.463,1.066-1.309,1.066A2.152,2.152,0,0,1,241.97,194.573Z" transform="translate(-211.057 -189.462)"/><path class="a" d="M258.473,188.137v-4.515h.6v4.559c0,.191.081.265.169.265a.509.509,0,0,0,.133-.015l.081.456a.811.811,0,0,1-.346.059C258.657,188.946,258.473,188.659,258.473,188.137Z" transform="translate(-224.184 -183.342)"/><path class="a" d="M266.6,184.731a.42.42,0,0,1,.838,0,.42.42,0,0,1-.838,0Zm.11,1.125h.6v3.574h-.6Z" transform="translate(-230.647 -183.914)"/><path class="a" d="M274.185,193.2a1.724,1.724,0,0,1,1.6-1.883c.912,0,1.427.654,1.427,1.677a2.364,2.364,0,0,1-.022.346h-2.412a1.185,1.185,0,0,0,1.191,1.243,1.615,1.615,0,0,0,.89-.279l.213.4a2.129,2.129,0,0,1-1.176.368A1.709,1.709,0,0,1,274.185,193.2Zm2.5-.294c0-.721-.324-1.111-.883-1.111a1.1,1.1,0,0,0-1.029,1.111Z" transform="translate(-236.682 -189.462)"/><path class="a" d="M291.424,185.433h-.485v-.456l.485-.037v-.566c0-.728.331-1.184,1.044-1.184a1.618,1.618,0,0,1,.6.118l-.132.463a1.006,1.006,0,0,0-.4-.088c-.338,0-.5.235-.5.691v.566h.757v.493h-.757v3.081h-.6Z" transform="translate(-250.009 -182.999)"/><path class="a" d="M301.15,193.2a1.724,1.724,0,0,1,1.6-1.883c.912,0,1.427.654,1.427,1.677a2.347,2.347,0,0,1-.022.346h-2.412a1.185,1.185,0,0,0,1.192,1.243,1.614,1.614,0,0,0,.89-.279l.213.4a2.13,2.13,0,0,1-1.177.368A1.709,1.709,0,0,1,301.15,193.2Zm2.5-.294c0-.721-.324-1.111-.883-1.111a1.1,1.1,0,0,0-1.03,1.111Z" transform="translate(-258.131 -189.462)"/><path class="a" d="M319.776,191.4h.5l.052.647h.022a1.222,1.222,0,0,1,1.015-.735.89.89,0,0,1,.382.073l-.118.53a1,1,0,0,0-.345-.059c-.3,0-.662.221-.9.824v2.295h-.6Z" transform="translate(-272.947 -189.462)"/><path class="a" d="M331.5,194.011v-2.265h.61v2.184c0,.669.2.956.669.956.368,0,.625-.184.963-.6v-2.537h.6v3.574h-.5l-.052-.559h-.022a1.51,1.51,0,0,1-1.176.647C331.835,195.408,331.5,194.923,331.5,194.011Z" transform="translate(-282.27 -189.805)"/><path class="a" d="M350.8,191.4h.5l.052.515h.022a1.685,1.685,0,0,1,1.2-.6c.75,0,1.089.485,1.089,1.4v2.265h-.6v-2.184c0-.669-.206-.956-.677-.956-.368,0-.618.191-.978.552v2.589h-.6Z" transform="translate(-297.629 -189.462)"/><path class="a" d="M368.64,195.661a1.032,1.032,0,0,1,.522-.809v-.029a.66.66,0,0,1-.316-.581.837.837,0,0,1,.39-.662v-.029a1.262,1.262,0,0,1,.883-2.236,1.431,1.431,0,0,1,.508.088h1.243v.463h-.735a1.037,1.037,0,0,1,.294.735,1.227,1.227,0,0,1-1.309,1.243,1.246,1.246,0,0,1-.537-.125.542.542,0,0,0-.228.427c0,.228.147.39.633.39h.691c.831,0,1.25.257,1.25.853,0,.662-.7,1.235-1.809,1.235C369.243,196.624,368.64,196.279,368.64,195.661Zm2.7-.184c0-.331-.258-.441-.721-.441H370a1.736,1.736,0,0,1-.463-.059.753.753,0,0,0-.368.6c0,.382.39.625,1.037.625C370.89,196.205,371.339,195.852,371.339,195.477Zm-.463-2.89a.761.761,0,1,0-1.515,0,.763.763,0,1,0,1.515,0Z" transform="translate(-311.816 -189.462)"/></g></svg>